<svg xmlns="http://www.w3.org/2000/svg" width="280" height="360" viewBox="0 0 280 360" fill="none">
  <defs>
    <linearGradient id="petal" x1="0" y1="0" x2="1" y2="1">
      <stop offset="0%" stop-color="#F8CAD6"/>
      <stop offset="100%" stop-color="#EFA8BA"/>
    </linearGradient>
    <linearGradient id="leaf" x1="0" y1="0" x2="1" y2="1">
      <stop offset="0%" stop-color="#B8C7A8"/>
      <stop offset="100%" stop-color="#8DA77F"/>
    </linearGradient>
  </defs>
  <g opacity="0.95">
    <path d="M98 318C102 274 111 233 129 188" stroke="#A7B59B" stroke-width="6" stroke-linecap="round"/>
    <path d="M130 191C156 170 174 144 189 114" stroke="#A7B59B" stroke-width="4" stroke-linecap="round"/>
    <path d="M123 195C90 180 60 151 39 126" stroke="#A7B59B" stroke-width="4" stroke-linecap="round"/>
    <ellipse cx="161" cy="103" rx="28" ry="44" transform="rotate(22 161 103)" fill="url(#petal)"/>
    <ellipse cx="137" cy="121" rx="26" ry="38" transform="rotate(-18 137 121)" fill="#F6D5DE"/>
    <ellipse cx="186" cy="131" rx="23" ry="32" transform="rotate(36 186 131)" fill="#F1C2CF"/>
    <ellipse cx="116" cy="225" rx="46" ry="18" transform="rotate(-25 116 225)" fill="url(#leaf)"/>
    <ellipse cx="77" cy="190" rx="39" ry="15" transform="rotate(-40 77 190)" fill="#BFD0B1"/>
    <ellipse cx="160" cy="193" rx="36" ry="14" transform="rotate(-54 160 193)" fill="#B6C7A8"/>
    <ellipse cx="44" cy="128" rx="26" ry="11" transform="rotate(-28 44 128)" fill="#C4D1B9"/>
    <g transform="translate(126 114)">
      <circle r="8" fill="#F7E5AC"/>
      <circle cx="0" cy="-12" r="3" fill="#D8B75D"/>
      <circle cx="10" cy="-8" r="3" fill="#D8B75D"/>
      <circle cx="12" cy="4" r="3" fill="#D8B75D"/>
      <circle cx="-8" cy="-8" r="3" fill="#D8B75D"/>
      <circle cx="-12" cy="4" r="3" fill="#D8B75D"/>
      <circle cx="0" cy="12" r="3" fill="#D8B75D"/>
    </g>
  </g>
</svg>